<svg width="808" height="263" viewBox="0 0 808 263" fill="none" xmlns="http://www.w3.org/2000/svg">
<path fill-rule="evenodd" clip-rule="evenodd" d="M7.75426 134.933C15.2401 81.553 127.041 107.03 198.255 94.3487C292.134 77.6307 394.612 -3.20533 455.415 55.2132C518.628 115.948 419.71 187.984 343.756 234.145C298.868 261.425 237.221 239.224 180.295 222.415C108.987 201.36 0.158965 189.093 7.75426 134.933Z" fill="#48A377"/>
<path fill-rule="evenodd" clip-rule="evenodd" d="M800.018 134.933C792.532 81.553 680.731 107.03 609.518 94.3487C515.639 77.6307 413.16 -3.20533 352.357 55.2132C289.144 115.948 388.062 187.984 464.016 234.145C508.904 261.425 570.551 239.224 627.477 222.415C698.785 201.36 807.613 189.093 800.018 134.933Z" fill="#48A377"/>
</svg>
